# xmcd
#
# Track frame offsets: 
#        150
#        34399
#        53479
#        69582
#        89730
#        103800
#        121227
#        133250
#        148836
#        170829
#        186865
#        202915
#        222160
#        230625
#        249798
#        265763
#        278830
#
# Disc length: 3913 seconds
#
# Revision: 0
# Processed by: cddbd v1.5.2PL0 Copyright (c) Steve Scherf et al.
# Submitted via: ExactAudioCopy v0.95b3
#
DISCID=070f4711
DTITLE=Bee Gees  - Odessa - Disc 2 (Mono)
DYEAR=1900
DGENRE=
TTITLE0=Odessa (City on the Black Sea)
TTITLE1=You'll Never See My Face Again
TTITLE2=Black Diamond
TTITLE3=Marley Purt Drive
TTITLE4=Edison
TTITLE5=Melody Fair
TTITLE6=Suddenly
TTITLE7=Whisper Whisper
TTITLE8=Lamplight
TTITLE9=Sound of Love
TTITLE10=Give Your Best
TTITLE11=Seven Seas Symphony
TTITLE12=With All Nations (International Anthem)
TTITLE13=I Laugh in Your Face
TTITLE14=Never Say Never Again
TTITLE15=First Of May
TTITLE16=The British Opera
EXTD=
EXTT0=
EXTT1=
EXTT2=
EXTT3=
EXTT4=
EXTT5=
EXTT6=
EXTT7=
EXTT8=
EXTT9=
EXTT10=
EXTT11=
EXTT12=
EXTT13=
EXTT14=
EXTT15=
EXTT16=
PLAYORDER=
